<svg xmlns="http://www.w3.org/2000/svg" xmlns:xlink="http://www.w3.org/1999/xlink">
<polyline points="30,39.6410161514 60,22.3205080757 60,-12.3205080757 30,-29.6410161514 0,-12.3205080757 0,22.3205080757 30,39.6410161514" style="stroke:#000000; fill: #ffffff"/>
<text x="20" y="3" style="font-family: Courier; font-size: 34; stroke: #000000; fill : #000000;">.</text>
<text x="12" y="5" style="font-family: Courier; font-size: 34; stroke: #000000; fill : #000000;">.</text>
<polyline points="90.0,39.6410161514 120.0,22.3205080757 120.0,-12.3205080757 90.0,-29.6410161514 60.0,-12.3205080757 60.0,22.3205080757 90.0,39.6410161514" style="stroke:#000000; fill: #ffffff"/>
<text x="80.0" y="16" style="font-family: Courier; font-size: 34; stroke: #000000; fill : #000000;">.</text>
<text x="62.0" y="5" style="font-family: Courier; font-size: 34; stroke: #000000; fill : #000000;">.</text>
<polyline points="150.0,39.6410161514 180.0,22.3205080757 180.0,-12.3205080757 150.0,-29.6410161514 120.0,-12.3205080757 120.0,22.3205080757 150.0,39.6410161514" style="stroke:#000000; fill: #ffffff"/>
<text x="139.0" y="7" style="font-family: Courier; font-size: 34; stroke: #000000; fill : #000000;">.</text>
<polyline points="60.0,-12.3205080757 90.0,-29.6410161514 90.0,-64.2820323028 60.0,-81.6025403784 30.0,-64.2820323028 30.0,-29.6410161514 60.0,-12.3205080757" style="stroke:#000000; fill: #ffffff"/>
<text x="35.0" y="-39.9615242271" style="font-family: Courier; font-size: 34; stroke: #000000; fill : #000000;">.</text>
<text x="39.0" y="-46.9615242271" style="font-family: Courier; font-size: 34; stroke: #000000; fill : #000000;">.</text>
<polyline points="120.0,-12.3205080757 150.0,-29.6410161514 150.0,-64.2820323028 120.0,-81.6025403784 90.0,-64.2820323028 90.0,-29.6410161514 120.0,-12.3205080757" style="stroke:#000000; fill: #ffffff"/>
<text x="90.0" y="-45.9615242271" style="font-family: Courier; font-size: 34; stroke: #000000; fill : #000000;">.</text>
<polyline points="180.0,-12.3205080757 210.0,-29.6410161514 210.0,-64.2820323028 180.0,-81.6025403784 150.0,-64.2820323028 150.0,-29.6410161514 180.0,-12.3205080757" style="stroke:#000000; fill: #ffffff"/>
<polyline points="30,-64.2820323028 60,-81.6025403784 60,-116.24355653 30,-133.564064606 0,-116.24355653 0,-81.6025403784 30,-64.2820323028" style="stroke:#000000; fill: #ffffff"/>
<text x="2" y="-97.9230484541" style="font-family: Courier; font-size: 34; stroke: #000000; fill : #000000;">.</text>
<polyline points="90.0,-64.2820323028 120.0,-81.6025403784 120.0,-116.24355653 90.0,-133.564064606 60.0,-116.24355653 60.0,-81.6025403784 90.0,-64.2820323028" style="stroke:#000000; fill: #ffffff"/>
<text x="62.0" y="-100.923048454" style="font-family: Courier; font-size: 34; stroke: #000000; fill : #000000;">.</text>
<polyline points="150.0,-64.2820323028 180.0,-81.6025403784 180.0,-116.24355653 150.0,-133.564064606 120.0,-116.24355653 120.0,-81.6025403784 150.0,-64.2820323028" style="stroke:#000000; fill: #ffffff"/>
<text x="131.0" y="-89.9230484541" style="font-family: Courier; font-size: 34; stroke: #000000; fill : #000000;">.</text>
<text x="139.0" y="-95.9230484541" style="font-family: Courier; font-size: 34; stroke: #000000; fill : #000000;">.</text>
<text x="129.0" y="-103.923048454" style="font-family: Courier; font-size: 34; stroke: #000000; fill : #000000;">.</text>
<polyline points="60.0,-116.24355653 90.0,-133.564064606 90.0,-168.205080757 60.0,-185.525588833 30.0,-168.205080757 30.0,-133.564064606 60.0,-116.24355653" style="stroke:#000000; fill: #ffffff"/>
<polyline points="120.0,-116.24355653 150.0,-133.564064606 150.0,-168.205080757 120.0,-185.525588833 90.0,-168.205080757 90.0,-133.564064606 120.0,-116.24355653" style="stroke:#000000; fill: #ffffff"/>
<text x="102.0" y="-153.884572681" style="font-family: Courier; font-size: 34; stroke: #000000; fill : #000000;">.</text>
<polyline points="180.0,-116.24355653 210.0,-133.564064606 210.0,-168.205080757 180.0,-185.525588833 150.0,-168.205080757 150.0,-133.564064606 180.0,-116.24355653" style="stroke:#000000; fill: #ffffff"/>
<text x="161.0" y="-147.884572681" style="font-family: Courier; font-size: 34; stroke: #000000; fill : #000000;">.</text>
</svg>