<?xml version="1.0" encoding="UTF-8" standalone="no"?>
<svg
   xmlns:dc="http://purl.org/dc/elements/1.1/"
   xmlns:cc="http://creativecommons.org/ns#"
   xmlns:rdf="http://www.w3.org/1999/02/22-rdf-syntax-ns#"
   xmlns:svg="http://www.w3.org/2000/svg"
   xmlns="http://www.w3.org/2000/svg"
   xmlns:sodipodi="http://sodipodi.sourceforge.net/DTD/sodipodi-0.dtd"
   xmlns:inkscape="http://www.inkscape.org/namespaces/inkscape"
   id="svg2"
   version="1.1"
   inkscape:version="0.47 r22583"
   width="100%"
   height="100%"
   sodipodi:docname="bmu.svg"
   inkscape:export-filename="E:\somanalyst\doc\sphinx\_images\toolbox\group.png"
   inkscape:export-xdpi="90"
   inkscape:export-ydpi="90">
  <metadata
     id="metadata62">
    <rdf:RDF>
      <cc:Work
         rdf:about="">
        <dc:format>image/svg+xml</dc:format>
        <dc:type
           rdf:resource="http://purl.org/dc/dcmitype/StillImage" />
        <dc:title></dc:title>
      </cc:Work>
    </rdf:RDF>
  </metadata>
  <defs
     id="defs60">
    <inkscape:perspective
       sodipodi:type="inkscape:persp3d"
       inkscape:vp_x="0 : 0.5 : 1"
       inkscape:vp_y="0 : 1000 : 0"
       inkscape:vp_z="1 : 0.5 : 1"
       inkscape:persp3d-origin="0.5 : 0.33333333 : 1"
       id="perspective64" />
  </defs>
  <sodipodi:namedview
     pagecolor="#ffffff"
     bordercolor="#666666"
     borderopacity="1"
     objecttolerance="10"
     gridtolerance="10"
     guidetolerance="10"
     inkscape:pageopacity="0"
     inkscape:pageshadow="2"
     inkscape:window-width="641"
     inkscape:window-height="700"
     id="namedview58"
     showgrid="false"
     inkscape:snap-global="false"
     inkscape:zoom="1.9808406"
     inkscape:cx="105"
     inkscape:cy="1125.3045"
     inkscape:window-x="0"
     inkscape:window-y="0"
     inkscape:window-maximized="0"
     inkscape:current-layer="svg2" />
  <polyline
     points="30,39.6410161514 60,22.3205080757 60,-12.3205080757 30,-29.6410161514 0,-12.3205080757 0,22.3205080757 30,39.6410161514"
     style="stroke:#000000; fill: #ffffff"
     id="polyline4" />
  <text
     x="20"
     y="3"
     style="font-family: Courier; font-size: 34; stroke: #000000; fill : #000000;"
     id="text6">.</text>
  <text
     x="12"
     y="5"
     style="font-family: Courier; font-size: 34; stroke: #000000; fill : #000000;"
     id="text8">.</text>
  <polyline
     points="90.0,39.6410161514 120.0,22.3205080757 120.0,-12.3205080757 90.0,-29.6410161514 60.0,-12.3205080757 60.0,22.3205080757 90.0,39.6410161514"
     style="stroke:#000000; fill: #ffffff"
     id="polyline10" />
  <text
     x="80.0"
     y="16"
     style="font-family: Courier; font-size: 34; stroke: #000000; fill : #000000;"
     id="text12">.</text>
  <text
     x="62.0"
     y="5"
     style="font-family: Courier; font-size: 34; stroke: #000000; fill : #000000;"
     id="text14">.</text>
  <polyline
     points="150.0,39.6410161514 180.0,22.3205080757 180.0,-12.3205080757 150.0,-29.6410161514 120.0,-12.3205080757 120.0,22.3205080757 150.0,39.6410161514"
     style="stroke:#000000; fill: #ffffff"
     id="polyline16" />
  <text
     x="139.0"
     y="7"
     style="font-family: Courier; font-size: 34; stroke: #000000; fill : #000000;"
     id="text18">.</text>
  <polyline
     points="60.0,-12.3205080757 90.0,-29.6410161514 90.0,-64.2820323028 60.0,-81.6025403784 30.0,-64.2820323028 30.0,-29.6410161514 60.0,-12.3205080757"
     style="stroke:#000000; fill: #ffffff"
     id="polyline20" />
  <text
     x="35.0"
     y="-39.9615242271"
     style="font-family: Courier; font-size: 34; stroke: #000000; fill : #000000;"
     id="text22">.</text>
  <text
     x="39.0"
     y="-46.9615242271"
     style="font-family: Courier; font-size: 34; stroke: #000000; fill : #000000;"
     id="text24">.</text>
  <polyline
     points="120.0,-12.3205080757 150.0,-29.6410161514 150.0,-64.2820323028 120.0,-81.6025403784 90.0,-64.2820323028 90.0,-29.6410161514 120.0,-12.3205080757"
     style="stroke:#000000; fill: #ffffff"
     id="polyline26" />
  <text
     x="90.0"
     y="-45.9615242271"
     style="font-family: Courier; font-size: 34; stroke: #000000; fill : #000000;"
     id="text28">.</text>
  <polyline
     points="180.0,-12.3205080757 210.0,-29.6410161514 210.0,-64.2820323028 180.0,-81.6025403784 150.0,-64.2820323028 150.0,-29.6410161514 180.0,-12.3205080757"
     style="stroke:#000000; fill: #ffffff"
     id="polyline30" />
  <polyline
     points="30,-64.2820323028 60,-81.6025403784 60,-116.24355653 30,-133.564064606 0,-116.24355653 0,-81.6025403784 30,-64.2820323028"
     style="stroke:#000000; fill: #ffffff"
     id="polyline32" />
  <text
     x="2"
     y="-97.9230484541"
     style="font-family: Courier; font-size: 34; stroke: #000000; fill : #000000;"
     id="text34">.</text>
  <polyline
     points="90.0,-64.2820323028 120.0,-81.6025403784 120.0,-116.24355653 90.0,-133.564064606 60.0,-116.24355653 60.0,-81.6025403784 90.0,-64.2820323028"
     style="stroke:#000000; fill: #ffffff"
     id="polyline36" />
  <text
     x="62.0"
     y="-100.923048454"
     style="font-family: Courier; font-size: 34; stroke: #000000; fill : #000000;"
     id="text38">.</text>
  <polyline
     points="150.0,-64.2820323028 180.0,-81.6025403784 180.0,-116.24355653 150.0,-133.564064606 120.0,-116.24355653 120.0,-81.6025403784 150.0,-64.2820323028"
     style="stroke:#000000; fill: #ffffff"
     id="polyline40" />
  <text
     x="131.0"
     y="-89.9230484541"
     style="font-family: Courier; font-size: 34; stroke: #000000; fill : #000000;"
     id="text42">.</text>
  <text
     x="139.0"
     y="-95.9230484541"
     style="font-family: Courier; font-size: 34; stroke: #000000; fill : #000000;"
     id="text44">.</text>
  <text
     x="129.0"
     y="-103.923048454"
     style="font-family: Courier; font-size: 34; stroke: #000000; fill : #000000;"
     id="text46">.</text>
  <polyline
     points="60.0,-116.24355653 90.0,-133.564064606 90.0,-168.205080757 60.0,-185.525588833 30.0,-168.205080757 30.0,-133.564064606 60.0,-116.24355653"
     style="stroke:#000000; fill: #ffffff"
     id="polyline48" />
  <polyline
     points="120.0,-116.24355653 150.0,-133.564064606 150.0,-168.205080757 120.0,-185.525588833 90.0,-168.205080757 90.0,-133.564064606 120.0,-116.24355653"
     style="stroke:#000000; fill: #ffffff"
     id="polyline50" />
  <text
     x="102.0"
     y="-153.884572681"
     style="font-family: Courier; font-size: 34; stroke: #000000; fill : #000000;"
     id="text52">.</text>
  <polyline
     points="180.0,-116.24355653 210.0,-133.564064606 210.0,-168.205080757 180.0,-185.525588833 150.0,-168.205080757 150.0,-133.564064606 180.0,-116.24355653"
     style="stroke:#000000; fill: #ffffff"
     id="polyline54" />
  <text
     x="161.0"
     y="-147.884572681"
     style="font-family: Courier; font-size: 34; stroke: #000000; fill : #000000;"
     id="text56">.</text>
  <path
     style="fill:none;stroke:#000000;stroke-width:1px;stroke-linecap:butt;stroke-linejoin:miter;stroke-opacity:1"
     d="m 72.191573,2.8077814 28.270827,-50.9884534 0,0 -27.765991,-54.017468"
     id="path2874" />
  <path
     style="fill:none;stroke:#000000;stroke-width:1px;stroke-linecap:butt;stroke-linejoin:miter;stroke-opacity:1"
     d="m 12.116068,-99.673962 37.357877,50.988454 99.452725,54.0174702 0,0"
     id="path2876" />
  <path
     style="fill:none;stroke:#000000;stroke-width:1px;stroke-linecap:butt;stroke-linejoin:miter;stroke-opacity:1"
     d="M 89.860839,14.419013 138.82995,-106.23683 112.07363,-155.71078"
     id="path2878" />
</svg>
