<svg xmlns="http://www.w3.org/2000/svg" xmlns:xlink="http://www.w3.org/1999/xlink">
<polyline points="20,34.6410161514 50,17.3205080757 50,-17.3205080757 20,-34.6410161514 -10,-17.3205080757 -10,17.3205080757 20,34.6410161514" style="stroke:#000000; fill: #777777"/>
<polyline points="80.0,34.6410161514 110.0,17.3205080757 110.0,-17.3205080757 80.0,-34.6410161514 50.0,-17.3205080757 50.0,17.3205080757 80.0,34.6410161514" style="stroke:#000000; fill: #444444"/>
<polyline points="140.0,34.6410161514 170.0,17.3205080757 170.0,-17.3205080757 140.0,-34.6410161514 110.0,-17.3205080757 110.0,17.3205080757 140.0,34.6410161514" style="stroke:#000000; fill: #333333"/>
<polyline points="50.0,-17.3205080757 80.0,-34.6410161514 80.0,-69.2820323028 50.0,-86.6025403784 20.0,-69.2820323028 20.0,-34.6410161514 50.0,-17.3205080757" style="stroke:#000000; fill: #666666"/>
<polyline points="110.0,-17.3205080757 140.0,-34.6410161514 140.0,-69.2820323028 110.0,-86.6025403784 80.0,-69.2820323028 80.0,-34.6410161514 110.0,-17.3205080757" style="stroke:#000000; fill: #cccccc"/>
<polyline points="170.0,-17.3205080757 200.0,-34.6410161514 200.0,-69.2820323028 170.0,-86.6025403784 140.0,-69.2820323028 140.0,-34.6410161514 170.0,-17.3205080757" style="stroke:#000000; fill: #111111"/>
<polyline points="20,-69.2820323028 50,-86.6025403784 50,-121.24355653 20,-138.564064606 -10,-121.24355653 -10,-86.6025403784 20,-69.2820323028" style="stroke:#000000; fill: #222222"/>
<polyline points="80.0,-69.2820323028 110.0,-86.6025403784 110.0,-121.24355653 80.0,-138.564064606 50.0,-121.24355653 50.0,-86.6025403784 80.0,-69.2820323028" style="stroke:#000000; fill: #eeeeee"/>
<polyline points="140.0,-69.2820323028 170.0,-86.6025403784 170.0,-121.24355653 140.0,-138.564064606 110.0,-121.24355653 110.0,-86.6025403784 140.0,-69.2820323028" style="stroke:#000000; fill: #111111"/>
<polyline points="50.0,-121.24355653 80.0,-138.564064606 80.0,-173.205080757 50.0,-190.525588833 20.0,-173.205080757 20.0,-138.564064606 50.0,-121.24355653" style="stroke:#000000; fill: #eeeeee"/>
<polyline points="110.0,-121.24355653 140.0,-138.564064606 140.0,-173.205080757 110.0,-190.525588833 80.0,-173.205080757 80.0,-138.564064606 110.0,-121.24355653" style="stroke:#000000; fill: #000000"/>
<polyline points="170.0,-121.24355653 200.0,-138.564064606 200.0,-173.205080757 170.0,-190.525588833 140.0,-173.205080757 140.0,-138.564064606 170.0,-121.24355653" style="stroke:#000000; fill: #777777"/>
<polyline points="10,44.6410161514 40,27.3205080757 40,-7.32050807569 10,-24.6410161514 -20,-7.32050807569 -20,27.3205080757 10,44.6410161514" style="stroke:#000000; fill: #666666"/>
<polyline points="70.0,44.6410161514 100.0,27.3205080757 100.0,-7.32050807569 70.0,-24.6410161514 40.0,-7.32050807569 40.0,27.3205080757 70.0,44.6410161514" style="stroke:#000000; fill: #cccccc"/>
<polyline points="130.0,44.6410161514 160.0,27.3205080757 160.0,-7.32050807569 130.0,-24.6410161514 100.0,-7.32050807569 100.0,27.3205080757 130.0,44.6410161514" style="stroke:#000000; fill: #111111"/>
<polyline points="40.0,-7.32050807569 70.0,-24.6410161514 70.0,-59.2820323028 40.0,-76.6025403784 10.0,-59.2820323028 10.0,-24.6410161514 40.0,-7.32050807569" style="stroke:#000000; fill: #777777"/>
<polyline points="100.0,-7.32050807569 130.0,-24.6410161514 130.0,-59.2820323028 100.0,-76.6025403784 70.0,-59.2820323028 70.0,-24.6410161514 100.0,-7.32050807569" style="stroke:#000000; fill: #111111"/>
<polyline points="160.0,-7.32050807569 190.0,-24.6410161514 190.0,-59.2820323028 160.0,-76.6025403784 130.0,-59.2820323028 130.0,-24.6410161514 160.0,-7.32050807569" style="stroke:#000000; fill: #999999"/>
<polyline points="10,-59.2820323028 40,-76.6025403784 40,-111.24355653 10,-128.564064606 -20,-111.24355653 -20,-76.6025403784 10,-59.2820323028" style="stroke:#000000; fill: #666666"/>
<polyline points="70.0,-59.2820323028 100.0,-76.6025403784 100.0,-111.24355653 70.0,-128.564064606 40.0,-111.24355653 40.0,-76.6025403784 70.0,-59.2820323028" style="stroke:#000000; fill: #777777"/>
<polyline points="130.0,-59.2820323028 160.0,-76.6025403784 160.0,-111.24355653 130.0,-128.564064606 100.0,-111.24355653 100.0,-76.6025403784 130.0,-59.2820323028" style="stroke:#000000; fill: #dddddd"/>
<polyline points="40.0,-111.24355653 70.0,-128.564064606 70.0,-163.205080757 40.0,-180.525588833 10.0,-163.205080757 10.0,-128.564064606 40.0,-111.24355653" style="stroke:#000000; fill: #888888"/>
<polyline points="100.0,-111.24355653 130.0,-128.564064606 130.0,-163.205080757 100.0,-180.525588833 70.0,-163.205080757 70.0,-128.564064606 100.0,-111.24355653" style="stroke:#000000; fill: #888888"/>
<polyline points="160.0,-111.24355653 190.0,-128.564064606 190.0,-163.205080757 160.0,-180.525588833 130.0,-163.205080757 130.0,-128.564064606 160.0,-111.24355653" style="stroke:#000000; fill: #222222"/>
<polyline points="0,54.6410161514 30,37.3205080757 30,2.67949192431 0,-14.6410161514 -30,2.67949192431 -30,37.3205080757 0,54.6410161514" style="stroke:#000000; fill: #dddddd"/>
<polyline points="60.0,54.6410161514 90.0,37.3205080757 90.0,2.67949192431 60.0,-14.6410161514 30.0,2.67949192431 30.0,37.3205080757 60.0,54.6410161514" style="stroke:#000000; fill: #111111"/>
<polyline points="120.0,54.6410161514 150.0,37.3205080757 150.0,2.67949192431 120.0,-14.6410161514 90.0,2.67949192431 90.0,37.3205080757 120.0,54.6410161514" style="stroke:#000000; fill: #666666"/>
<polyline points="30.0,2.67949192431 60.0,-14.6410161514 60.0,-49.2820323028 30.0,-66.6025403784 0.0,-49.2820323028 0.0,-14.6410161514 30.0,2.67949192431" style="stroke:#000000; fill: #333333"/>
<polyline points="90.0,2.67949192431 120.0,-14.6410161514 120.0,-49.2820323028 90.0,-66.6025403784 60.0,-49.2820323028 60.0,-14.6410161514 90.0,2.67949192431" style="stroke:#000000; fill: #999999"/>
<polyline points="150.0,2.67949192431 180.0,-14.6410161514 180.0,-49.2820323028 150.0,-66.6025403784 120.0,-49.2820323028 120.0,-14.6410161514 150.0,2.67949192431" style="stroke:#000000; fill: #000000"/>
<polyline points="0,-49.2820323028 30,-66.6025403784 30,-101.24355653 0,-118.564064606 -30,-101.24355653 -30,-66.6025403784 0,-49.2820323028" style="stroke:#000000; fill: #000000"/>
<polyline points="60.0,-49.2820323028 90.0,-66.6025403784 90.0,-101.24355653 60.0,-118.564064606 30.0,-101.24355653 30.0,-66.6025403784 60.0,-49.2820323028" style="stroke:#000000; fill: #222222"/>
<polyline points="120.0,-49.2820323028 150.0,-66.6025403784 150.0,-101.24355653 120.0,-118.564064606 90.0,-101.24355653 90.0,-66.6025403784 120.0,-49.2820323028" style="stroke:#000000; fill: #eeeeee"/>
<polyline points="30.0,-101.24355653 60.0,-118.564064606 60.0,-153.205080757 30.0,-170.525588833 0.0,-153.205080757 0.0,-118.564064606 30.0,-101.24355653" style="stroke:#000000; fill: #dddddd"/>
<polyline points="90.0,-101.24355653 120.0,-118.564064606 120.0,-153.205080757 90.0,-170.525588833 60.0,-153.205080757 60.0,-118.564064606 90.0,-101.24355653" style="stroke:#000000; fill: #eeeeee"/>
<polyline points="150.0,-101.24355653 180.0,-118.564064606 180.0,-153.205080757 150.0,-170.525588833 120.0,-153.205080757 120.0,-118.564064606 150.0,-101.24355653" style="stroke:#000000; fill: #666666"/>
</svg>