<svg xmlns="http://www.w3.org/2000/svg" xmlns:xlink="http://www.w3.org/1999/xlink">
<polyline points="10,80 10,45 125,45 125,150 10,150 10,80 125,80" style="stroke:#000000; fill: #FFFFFF"/>
<polyline points="50,45 50,150" style="stroke:#000000; fill: #FFFFFF"/>
<polyline points="90,45 90,150" style="stroke:#000000; fill: #FFFFFF"/>
<text x="15" y="70" style="font-family: Courier; font-size: 34; stroke: #000000; fill : #000000;">A</text>
<text x="55" y="70" style="font-family: Courier; font-size: 34; stroke: #000000; fill : #000000;">B</text>
<text x="95" y="70" style="font-family: Courier; font-size: 34; stroke: #000000; fill : #000000;">C</text>
<text x="15" y="105" style="font-family: Courier; font-size: 34; stroke: #000000; fill : #000000;">1</text>
<text x="55" y="105" style="font-family: Courier; font-size: 34; stroke: #000000; fill : #000000;">2</text>
<text x="95" y="105" style="font-family: Courier; font-size: 34; stroke: #000000; fill : #000000;">3</text>
<text x="15" y="120" style="font-family: Courier; font-size: 34; stroke: #000000; fill : #000000;">.</text>
<text x="55" y="120" style="font-family: Courier; font-size: 34; stroke: #000000; fill : #000000;">.</text>
<text x="95" y="120" style="font-family: Courier; font-size: 34; stroke: #000000; fill : #000000;">.</text>
<text x="15" y="130" style="font-family: Courier; font-size: 34; stroke: #000000; fill : #000000;">.</text>
<text x="55" y="130" style="font-family: Courier; font-size: 34; stroke: #000000; fill : #000000;">.</text>
<text x="95" y="130" style="font-family: Courier; font-size: 34; stroke: #000000; fill : #000000;">.</text>
<text x="15" y="140" style="font-family: Courier; font-size: 34; stroke: #000000; fill : #000000;">.</text>
<text x="55" y="140" style="font-family: Courier; font-size: 34; stroke: #000000; fill : #000000;">.</text>
<text x="95" y="140" style="font-family: Courier; font-size: 34; stroke: #000000; fill : #000000;">.</text>
<text x="135" y="105" style="font-family: Courier; font-size: 34; stroke: #000000; fill : #000000;">+</text>
<polyline points="165,80 165,45 280,45 280,150 165,150 165,80 280,80" style="stroke:#000000; fill: #FFFFFF"/>
<polyline points="205,45 205,150" style="stroke:#000000; fill: #FFFFFF"/>
<polyline points="245,45 245,150" style="stroke:#000000; fill: #FFFFFF"/>
<text x="170" y="70" style="font-family: Courier; font-size: 34; stroke: #000000; fill : #000000;">A</text>
<text x="210" y="70" style="font-family: Courier; font-size: 34; stroke: #000000; fill : #000000;">B</text>
<text x="250" y="70" style="font-family: Courier; font-size: 34; stroke: #000000; fill : #000000;">C</text>
<text x="170" y="105" style="font-family: Courier; font-size: 34; stroke: #000000; fill : #000000;">4</text>
<text x="210" y="105" style="font-family: Courier; font-size: 34; stroke: #000000; fill : #000000;">5</text>
<text x="250" y="105" style="font-family: Courier; font-size: 34; stroke: #000000; fill : #000000;">6</text>
<text x="170" y="120" style="font-family: Courier; font-size: 34; stroke: #000000; fill : #000000;">.</text>
<text x="210" y="120" style="font-family: Courier; font-size: 34; stroke: #000000; fill : #000000;">.</text>
<text x="250" y="120" style="font-family: Courier; font-size: 34; stroke: #000000; fill : #000000;">.</text>
<text x="170" y="130" style="font-family: Courier; font-size: 34; stroke: #000000; fill : #000000;">.</text>
<text x="210" y="130" style="font-family: Courier; font-size: 34; stroke: #000000; fill : #000000;">.</text>
<text x="250" y="130" style="font-family: Courier; font-size: 34; stroke: #000000; fill : #000000;">.</text>
<text x="170" y="140" style="font-family: Courier; font-size: 34; stroke: #000000; fill : #000000;">.</text>
<text x="210" y="140" style="font-family: Courier; font-size: 34; stroke: #000000; fill : #000000;">.</text>
<text x="250" y="140" style="font-family: Courier; font-size: 34; stroke: #000000; fill : #000000;">.</text>
<line x1="295"  y1="95" x2="330"   y2="95" style="stroke:#000000;"/>
<line x1="330"  y1="95" x2="325.0"   y2="86.3397459622" style="stroke:#000000;"/>
<line x1="330"  y1="95" x2="325.0"   y2="103.660254038" style="stroke:#000000;"/>
<polyline points="345,45 345,10 460,10 460,185 345,185 345,45 460,45" style="stroke:#000000; fill: #FFFFFF"/>
<polyline points="385,10 385,185" style="stroke:#000000; fill: #FFFFFF"/>
<polyline points="425,10 425,185" style="stroke:#000000; fill: #FFFFFF"/>
<text x="350" y="35" style="font-family: Courier; font-size: 34; stroke: #000000; fill : #000000;">A</text>
<text x="390" y="35" style="font-family: Courier; font-size: 34; stroke: #000000; fill : #000000;">B</text>
<text x="430" y="35" style="font-family: Courier; font-size: 34; stroke: #000000; fill : #000000;">C</text>
<text x="350" y="70" style="font-family: Courier; font-size: 34; stroke: #000000; fill : #000000;">1</text>
<text x="390" y="70" style="font-family: Courier; font-size: 34; stroke: #000000; fill : #000000;">2</text>
<text x="430" y="70" style="font-family: Courier; font-size: 34; stroke: #000000; fill : #000000;">3</text>
<text x="350" y="85" style="font-family: Courier; font-size: 34; stroke: #000000; fill : #000000;">.</text>
<text x="390" y="85" style="font-family: Courier; font-size: 34; stroke: #000000; fill : #000000;">.</text>
<text x="430" y="85" style="font-family: Courier; font-size: 34; stroke: #000000; fill : #000000;">.</text>
<text x="350" y="95" style="font-family: Courier; font-size: 34; stroke: #000000; fill : #000000;">.</text>
<text x="390" y="95" style="font-family: Courier; font-size: 34; stroke: #000000; fill : #000000;">.</text>
<text x="430" y="95" style="font-family: Courier; font-size: 34; stroke: #000000; fill : #000000;">.</text>
<text x="350" y="105" style="font-family: Courier; font-size: 34; stroke: #000000; fill : #000000;">.</text>
<text x="390" y="105" style="font-family: Courier; font-size: 34; stroke: #000000; fill : #000000;">.</text>
<text x="430" y="105" style="font-family: Courier; font-size: 34; stroke: #000000; fill : #000000;">.</text>
<text x="350" y="140" style="font-family: Courier; font-size: 34; stroke: #000000; fill : #000000;">4</text>
<text x="390" y="140" style="font-family: Courier; font-size: 34; stroke: #000000; fill : #000000;">5</text>
<text x="430" y="140" style="font-family: Courier; font-size: 34; stroke: #000000; fill : #000000;">6</text>
<text x="350" y="155" style="font-family: Courier; font-size: 34; stroke: #000000; fill : #000000;">.</text>
<text x="390" y="155" style="font-family: Courier; font-size: 34; stroke: #000000; fill : #000000;">.</text>
<text x="430" y="155" style="font-family: Courier; font-size: 34; stroke: #000000; fill : #000000;">.</text>
<text x="350" y="165" style="font-family: Courier; font-size: 34; stroke: #000000; fill : #000000;">.</text>
<text x="390" y="165" style="font-family: Courier; font-size: 34; stroke: #000000; fill : #000000;">.</text>
<text x="430" y="165" style="font-family: Courier; font-size: 34; stroke: #000000; fill : #000000;">.</text>
<text x="350" y="175" style="font-family: Courier; font-size: 34; stroke: #000000; fill : #000000;">.</text>
<text x="390" y="175" style="font-family: Courier; font-size: 34; stroke: #000000; fill : #000000;">.</text>
<text x="430" y="175" style="font-family: Courier; font-size: 34; stroke: #000000; fill : #000000;">.</text>
</svg>