<svg xmlns="http://www.w3.org/2000/svg" xmlns:xlink="http://www.w3.org/1999/xlink">
<rect x="10" y="80" height="35" width="115" style="stroke:#888888; fill: #888888"/>
<rect x="10" y="150" height="35" width="115" style="stroke:#888888; fill: #888888"/>
<line x1="10"  y1="45" x2="10"   y2="10" style="stroke:#000000;"/>
<line x1="10"  y1="10" x2="125"   y2="10" style="stroke:#000000;"/>
<line x1="125"  y1="10" x2="125"   y2="185" style="stroke:#000000;"/>
<line x1="125"  y1="185" x2="10"   y2="185" style="stroke:#000000;"/>
<line x1="10"  y1="185" x2="10"   y2="45" style="stroke:#000000;"/>
<line x1="10"  y1="45" x2="125"   y2="45" style="stroke:#000000;"/>

<line x1="50"  y1="10" x2="50"   y2="185" style="stroke:#000000;"/>
<line x1="90"  y1="10" x2="90"   y2="185" style="stroke:#000000;"/>
<text x="15" y="35" style="font-family: Courier; font-size: 34; stroke: #000000; fill : #000000;">A</text>
<text x="55" y="35" style="font-family: Courier; font-size: 34; stroke: #000000; fill : #000000;">B</text>
<text x="95" y="35" style="font-family: Courier; font-size: 34; stroke: #000000; fill : #000000;">C</text>
<text x="15" y="70" style="font-family: Courier; font-size: 34; stroke: #000000; fill : #000000;">1</text>
<text x="55" y="70" style="font-family: Courier; font-size: 34; stroke: #000000; fill : #000000;">2</text>
<text x="95" y="70" style="font-family: Courier; font-size: 34; stroke: #000000; fill : #000000;">3</text>
<text x="15" y="85" style="font-family: Courier; font-size: 34; stroke: #000000; fill : #000000;">.</text>
<text x="55" y="85" style="font-family: Courier; font-size: 34; stroke: #000000; fill : #000000;">.</text>
<text x="95" y="85" style="font-family: Courier; font-size: 34; stroke: #000000; fill : #000000;">.</text>
<text x="15" y="95" style="font-family: Courier; font-size: 34; stroke: #000000; fill : #000000;">.</text>
<text x="55" y="95" style="font-family: Courier; font-size: 34; stroke: #000000; fill : #000000;">.</text>
<text x="95" y="95" style="font-family: Courier; font-size: 34; stroke: #000000; fill : #000000;">.</text>
<text x="15" y="105" style="font-family: Courier; font-size: 34; stroke: #000000; fill : #000000;">.</text>
<text x="55" y="105" style="font-family: Courier; font-size: 34; stroke: #000000; fill : #000000;">.</text>
<text x="95" y="105" style="font-family: Courier; font-size: 34; stroke: #000000; fill : #000000;">.</text>
<text x="15" y="140" style="font-family: Courier; font-size: 34; stroke: #000000; fill : #000000;">4</text>
<text x="55" y="140" style="font-family: Courier; font-size: 34; stroke: #000000; fill : #000000;">5</text>
<text x="95" y="140" style="font-family: Courier; font-size: 34; stroke: #000000; fill : #000000;">6</text>
<text x="15" y="155" style="font-family: Courier; font-size: 34; stroke: #000000; fill : #000000;">.</text>
<text x="55" y="155" style="font-family: Courier; font-size: 34; stroke: #000000; fill : #000000;">.</text>
<text x="95" y="155" style="font-family: Courier; font-size: 34; stroke: #000000; fill : #000000;">.</text>
<text x="15" y="165" style="font-family: Courier; font-size: 34; stroke: #000000; fill : #000000;">.</text>
<text x="55" y="165" style="font-family: Courier; font-size: 34; stroke: #000000; fill : #000000;">.</text>
<text x="95" y="165" style="font-family: Courier; font-size: 34; stroke: #000000; fill : #000000;">.</text>
<text x="15" y="175" style="font-family: Courier; font-size: 34; stroke: #000000; fill : #000000;">.</text>
<text x="55" y="175" style="font-family: Courier; font-size: 34; stroke: #000000; fill : #000000;">.</text>
<text x="95" y="175" style="font-family: Courier; font-size: 34; stroke: #000000; fill : #000000;">.</text>
<line x1="70"  y1="205" x2="70"   y2="240" style="stroke:#000000;"/>
<line x1="70"  y1="240" x2="65.0"   y2="231.339745962" style="stroke:#000000;"/>
<line x1="70"  y1="240" x2="75.0"   y2="231.339745962" style="stroke:#000000;"/>
<polyline points="10,290 10,255 125,255 125,360 10,360 10,290 125,290" style="stroke:#000000; fill: #FFFFFF"/>
<polyline points="50,255 50,360" style="stroke:#000000; fill: #FFFFFF"/>
<polyline points="90,255 90,360" style="stroke:#000000; fill: #FFFFFF"/>
<text x="15" y="280" style="font-family: Courier; font-size: 34; stroke: #000000; fill : #000000;">A</text>
<text x="55" y="280" style="font-family: Courier; font-size: 34; stroke: #000000; fill : #000000;">B</text>
<text x="95" y="280" style="font-family: Courier; font-size: 34; stroke: #000000; fill : #000000;">C</text>
<text x="15" y="315" style="font-family: Courier; font-size: 34; stroke: #000000; fill : #000000;">1</text>
<text x="55" y="315" style="font-family: Courier; font-size: 34; stroke: #000000; fill : #000000;">2</text>
<text x="95" y="315" style="font-family: Courier; font-size: 34; stroke: #000000; fill : #000000;">3</text>
<text x="15" y="350" style="font-family: Courier; font-size: 34; stroke: #000000; fill : #000000;">4</text>
<text x="55" y="350" style="font-family: Courier; font-size: 34; stroke: #000000; fill : #000000;">5</text>
<text x="95" y="350" style="font-family: Courier; font-size: 34; stroke: #000000; fill : #000000;">6</text>
</svg>