<svg xmlns="http://www.w3.org/2000/svg" xmlns:xlink="http://www.w3.org/1999/xlink">
<polyline points="30,39.6410161514 60,22.3205080757 60,-12.3205080757 30,-29.6410161514 0,-12.3205080757 0,22.3205080757 30,39.6410161514" style="stroke:#000000; fill: #ffffff"/>
<polyline points="90.0,39.6410161514 120.0,22.3205080757 120.0,-12.3205080757 90.0,-29.6410161514 60.0,-12.3205080757 60.0,22.3205080757 90.0,39.6410161514" style="stroke:#000000; fill: #ffffff"/>
<polyline points="150.0,39.6410161514 180.0,22.3205080757 180.0,-12.3205080757 150.0,-29.6410161514 120.0,-12.3205080757 120.0,22.3205080757 150.0,39.6410161514" style="stroke:#000000; fill: #ffffff"/>
<polyline points="60.0,-12.3205080757 90.0,-29.6410161514 90.0,-64.2820323028 60.0,-81.6025403784 30.0,-64.2820323028 30.0,-29.6410161514 60.0,-12.3205080757" style="stroke:#000000; fill: #ffffff"/>
<polyline points="120.0,-12.3205080757 150.0,-29.6410161514 150.0,-64.2820323028 120.0,-81.6025403784 90.0,-64.2820323028 90.0,-29.6410161514 120.0,-12.3205080757" style="stroke:#000000; fill: #ffffff"/>
<polyline points="180.0,-12.3205080757 210.0,-29.6410161514 210.0,-64.2820323028 180.0,-81.6025403784 150.0,-64.2820323028 150.0,-29.6410161514 180.0,-12.3205080757" style="stroke:#000000; fill: #ffffff"/>
<polyline points="30,-64.2820323028 60,-81.6025403784 60,-116.24355653 30,-133.564064606 0,-116.24355653 0,-81.6025403784 30,-64.2820323028" style="stroke:#000000; fill: #ffffff"/>
<polyline points="90.0,-64.2820323028 120.0,-81.6025403784 120.0,-116.24355653 90.0,-133.564064606 60.0,-116.24355653 60.0,-81.6025403784 90.0,-64.2820323028" style="stroke:#000000; fill: #ffffff"/>
<polyline points="150.0,-64.2820323028 180.0,-81.6025403784 180.0,-116.24355653 150.0,-133.564064606 120.0,-116.24355653 120.0,-81.6025403784 150.0,-64.2820323028" style="stroke:#000000; fill: #ffffff"/>
<polyline points="60.0,-116.24355653 90.0,-133.564064606 90.0,-168.205080757 60.0,-185.525588833 30.0,-168.205080757 30.0,-133.564064606 60.0,-116.24355653" style="stroke:#000000; fill: #ffffff"/>
<polyline points="120.0,-116.24355653 150.0,-133.564064606 150.0,-168.205080757 120.0,-185.525588833 90.0,-168.205080757 90.0,-133.564064606 120.0,-116.24355653" style="stroke:#000000; fill: #ffffff"/>
<polyline points="180.0,-116.24355653 210.0,-133.564064606 210.0,-168.205080757 180.0,-185.525588833 150.0,-168.205080757 150.0,-133.564064606 180.0,-116.24355653" style="stroke:#000000; fill: #ffffff"/>
</svg>