<svg xmlns="http://www.w3.org/2000/svg" xmlns:xlink="http://www.w3.org/1999/xlink">
<polyline points="30,39.6410161514 60,22.3205080757 60,-12.3205080757 30,-29.6410161514 0,-12.3205080757 0,22.3205080757 30,39.6410161514" style="stroke:#000000; fill: #cccccc"/>
<text x="0" y="15" style="font-family: Courier; font-size: 34; stroke: #000000; fill : #000000;">1.4</text>
<polyline points="90.0,39.6410161514 120.0,22.3205080757 120.0,-12.3205080757 90.0,-29.6410161514 60.0,-12.3205080757 60.0,22.3205080757 90.0,39.6410161514" style="stroke:#000000; fill: #e6e6e6"/>
<text x="60.0" y="15" style="font-family: Courier; font-size: 34; stroke: #000000; fill : #000000;">0.9</text>
<polyline points="150.0,39.6410161514 180.0,22.3205080757 180.0,-12.3205080757 150.0,-29.6410161514 120.0,-12.3205080757 120.0,22.3205080757 150.0,39.6410161514" style="stroke:#000000; fill: #808080"/>
<text x="120.0" y="15" style="font-family: Courier; font-size: 34; stroke: #000000; fill : #000000;">2.6</text>
<polyline points="60.0,-12.3205080757 90.0,-29.6410161514 90.0,-64.2820323028 60.0,-81.6025403784 30.0,-64.2820323028 30.0,-29.6410161514 60.0,-12.3205080757" style="stroke:#000000; fill: #cccccc"/>
<text x="30.0" y="-36.9615242271" style="font-family: Courier; font-size: 34; stroke: #000000; fill : #000000;">1.3</text>
<polyline points="120.0,-12.3205080757 150.0,-29.6410161514 150.0,-64.2820323028 120.0,-81.6025403784 90.0,-64.2820323028 90.0,-29.6410161514 120.0,-12.3205080757" style="stroke:#000000; fill: #808080"/>
<text x="90.0" y="-36.9615242271" style="font-family: Courier; font-size: 34; stroke: #000000; fill : #000000;">2.8</text>
<polyline points="180.0,-12.3205080757 210.0,-29.6410161514 210.0,-64.2820323028 180.0,-81.6025403784 150.0,-64.2820323028 150.0,-29.6410161514 180.0,-12.3205080757" style="stroke:#000000; fill: #e6e6e6"/>
<text x="150.0" y="-36.9615242271" style="font-family: Courier; font-size: 34; stroke: #000000; fill : #000000;">0.9</text>
<polyline points="30,-64.2820323028 60,-81.6025403784 60,-116.24355653 30,-133.564064606 0,-116.24355653 0,-81.6025403784 30,-64.2820323028" style="stroke:#000000; fill: #e6e6e6"/>
<text x="0" y="-88.9230484541" style="font-family: Courier; font-size: 34; stroke: #000000; fill : #000000;">0.8</text>
<polyline points="90.0,-64.2820323028 120.0,-81.6025403784 120.0,-116.24355653 90.0,-133.564064606 60.0,-116.24355653 60.0,-81.6025403784 90.0,-64.2820323028" style="stroke:#000000; fill: #e6e6e6"/>
<text x="60.0" y="-88.9230484541" style="font-family: Courier; font-size: 34; stroke: #000000; fill : #000000;">0.9</text>
<polyline points="150.0,-64.2820323028 180.0,-81.6025403784 180.0,-116.24355653 150.0,-133.564064606 120.0,-116.24355653 120.0,-81.6025403784 150.0,-64.2820323028" style="stroke:#000000; fill: #cccccc"/>
<text x="120.0" y="-88.9230484541" style="font-family: Courier; font-size: 34; stroke: #000000; fill : #000000;">1.3</text>
<polyline points="60.0,-116.24355653 90.0,-133.564064606 90.0,-168.205080757 60.0,-185.525588833 30.0,-168.205080757 30.0,-133.564064606 60.0,-116.24355653" style="stroke:#000000; fill: #808080"/>
<text x="30.0" y="-140.884572681" style="font-family: Courier; font-size: 34; stroke: #000000; fill : #000000;">2.8</text>
<polyline points="120.0,-116.24355653 150.0,-133.564064606 150.0,-168.205080757 120.0,-185.525588833 90.0,-168.205080757 90.0,-133.564064606 120.0,-116.24355653" style="stroke:#000000; fill: #808080"/>
<text x="90.0" y="-140.884572681" style="font-family: Courier; font-size: 34; stroke: #000000; fill : #000000;">2.9</text>
<polyline points="180.0,-116.24355653 210.0,-133.564064606 210.0,-168.205080757 180.0,-185.525588833 150.0,-168.205080757 150.0,-133.564064606 180.0,-116.24355653" style="stroke:#000000; fill: #ffffff"/>
<text x="150.0" y="-140.884572681" style="font-family: Courier; font-size: 34; stroke: #000000; fill : #000000;">0.3</text>
</svg>