<?xml version="1.0" encoding="UTF-8" standalone="no"?>
<svg
   xmlns:dc="http://purl.org/dc/elements/1.1/"
   xmlns:cc="http://creativecommons.org/ns#"
   xmlns:rdf="http://www.w3.org/1999/02/22-rdf-syntax-ns#"
   xmlns:svg="http://www.w3.org/2000/svg"
   xmlns="http://www.w3.org/2000/svg"
   xmlns:sodipodi="http://sodipodi.sourceforge.net/DTD/sodipodi-0.dtd"
   xmlns:inkscape="http://www.inkscape.org/namespaces/inkscape"
   id="svg2"
   version="1.1"
   inkscape:version="0.47 r22583"
   width="100%"
   height="100%"
   sodipodi:docname="visual.svg"
   inkscape:export-filename="E:\somanalyst\doc\sphinx\_images\toolbox\visual.png"
   inkscape:export-xdpi="90"
   inkscape:export-ydpi="90">
  <metadata
     id="metadata68">
    <rdf:RDF>
      <cc:Work
         rdf:about="">
        <dc:format>image/svg+xml</dc:format>
        <dc:type
           rdf:resource="http://purl.org/dc/dcmitype/StillImage" />
        <dc:title></dc:title>
      </cc:Work>
    </rdf:RDF>
  </metadata>
  <defs
     id="defs66">
    <inkscape:perspective
       sodipodi:type="inkscape:persp3d"
       inkscape:vp_x="0 : 0.5 : 1"
       inkscape:vp_y="0 : 1000 : 0"
       inkscape:vp_z="1 : 0.5 : 1"
       inkscape:persp3d-origin="0.5 : 0.33333333 : 1"
       id="perspective70" />
  </defs>
  <sodipodi:namedview
     pagecolor="#ffffff"
     bordercolor="#666666"
     borderopacity="1"
     objecttolerance="10"
     gridtolerance="10"
     guidetolerance="10"
     inkscape:pageopacity="0"
     inkscape:pageshadow="2"
     inkscape:window-width="1280"
     inkscape:window-height="753"
     id="namedview64"
     showgrid="false"
     inkscape:zoom="2.2151811"
     inkscape:cx="101.068"
     inkscape:cy="902.34638"
     inkscape:window-x="-4"
     inkscape:window-y="-4"
     inkscape:window-maximized="1"
     inkscape:current-layer="svg2" />
  <polyline
     points="30,39.6410161514 60,22.3205080757 60,-12.3205080757 30,-29.6410161514 0,-12.3205080757 0,22.3205080757 30,39.6410161514"
     style="fill:#999999;stroke:#888888"
     id="polyline4"
     transform="translate(62.428265,222.95809)" />
  <text
     x="62.428265"
     y="237.95808"
     style="font-size:34px;fill:#000000;stroke:#000000;font-family:Courier"
     id="text6">2.1</text>
  <polyline
     points="90.0,39.6410161514 120.0,22.3205080757 120.0,-12.3205080757 90.0,-29.6410161514 60.0,-12.3205080757 60.0,22.3205080757 90.0,39.6410161514"
     style="fill:#808080;stroke:#888888"
     id="polyline8"
     transform="translate(62.428265,222.95809)" />
  <text
     x="122.42827"
     y="237.95808"
     style="font-size:34px;fill:#000000;stroke:#000000;font-family:Courier"
     id="text10">2.8</text>
  <polyline
     points="150.0,39.6410161514 180.0,22.3205080757 180.0,-12.3205080757 150.0,-29.6410161514 120.0,-12.3205080757 120.0,22.3205080757 150.0,39.6410161514"
     style="fill:#cccccc;stroke:#888888"
     id="polyline12"
     transform="translate(62.428265,222.95809)" />
  <text
     x="182.42827"
     y="237.95808"
     style="font-size:34px;fill:#000000;stroke:#000000;font-family:Courier"
     id="text14">1.3</text>
  <polyline
     points="60.0,-12.3205080757 90.0,-29.6410161514 90.0,-64.2820323028 60.0,-81.6025403784 30.0,-64.2820323028 30.0,-29.6410161514 60.0,-12.3205080757"
     style="fill:#808080;stroke:#888888"
     id="polyline16"
     transform="translate(62.428265,222.95809)" />
  <text
     x="92.428268"
     y="185.99657"
     style="font-size:34px;fill:#000000;stroke:#000000;font-family:Courier"
     id="text18">2.8</text>
  <polyline
     points="120.0,-12.3205080757 150.0,-29.6410161514 150.0,-64.2820323028 120.0,-81.6025403784 90.0,-64.2820323028 90.0,-29.6410161514 120.0,-12.3205080757"
     style="fill:#808080;stroke:#888888"
     id="polyline20"
     transform="translate(62.428265,222.95809)" />
  <text
     x="152.42827"
     y="185.99657"
     style="font-size:34px;fill:#000000;stroke:#000000;font-family:Courier"
     id="text22">2.6</text>
  <polyline
     points="180.0,-12.3205080757 210.0,-29.6410161514 210.0,-64.2820323028 180.0,-81.6025403784 150.0,-64.2820323028 150.0,-29.6410161514 180.0,-12.3205080757"
     style="fill:#e6e6e6;stroke:#888888"
     id="polyline24"
     transform="translate(62.428265,222.95809)" />
  <text
     x="212.42827"
     y="185.99657"
     style="font-size:34px;fill:#000000;stroke:#000000;font-family:Courier"
     id="text26">0.7</text>
  <polyline
     points="30,-64.2820323028 60,-81.6025403784 60,-116.24355653 30,-133.564064606 0,-116.24355653 0,-81.6025403784 30,-64.2820323028"
     style="fill:#808080;stroke:#888888"
     id="polyline28"
     transform="translate(62.428265,222.95809)" />
  <text
     x="62.428265"
     y="134.03503"
     style="font-size:34px;fill:#000000;stroke:#000000;font-family:Courier"
     id="text30">2.7</text>
  <polyline
     points="90.0,-64.2820323028 120.0,-81.6025403784 120.0,-116.24355653 90.0,-133.564064606 60.0,-116.24355653 60.0,-81.6025403784 90.0,-64.2820323028"
     style="fill:#808080;stroke:#888888"
     id="polyline32"
     transform="translate(62.428265,222.95809)" />
  <text
     x="122.42827"
     y="134.03503"
     style="font-size:34px;fill:#000000;stroke:#000000;font-family:Courier"
     id="text34">2.5</text>
  <polyline
     points="150.0,-64.2820323028 180.0,-81.6025403784 180.0,-116.24355653 150.0,-133.564064606 120.0,-116.24355653 120.0,-81.6025403784 150.0,-64.2820323028"
     style="fill:#e6e6e6;stroke:#888888"
     id="polyline36"
     transform="translate(62.428265,222.95809)" />
  <text
     x="182.42827"
     y="134.03503"
     style="font-size:34px;fill:#000000;stroke:#000000;font-family:Courier"
     id="text38">0.5</text>
  <polyline
     points="60.0,-116.24355653 90.0,-133.564064606 90.0,-168.205080757 60.0,-185.525588833 30.0,-168.205080757 30.0,-133.564064606 60.0,-116.24355653"
     style="fill:#999999;stroke:#888888"
     id="polyline40"
     transform="translate(62.428265,222.95809)" />
  <text
     x="92.428268"
     y="82.073524"
     style="font-size:34px;fill:#000000;stroke:#000000;font-family:Courier"
     id="text42">2.4</text>
  <polyline
     points="120.0,-116.24355653 150.0,-133.564064606 150.0,-168.205080757 120.0,-185.525588833 90.0,-168.205080757 90.0,-133.564064606 120.0,-116.24355653"
     style="fill:#e6e6e6;stroke:#888888"
     id="polyline44"
     transform="translate(62.428265,222.95809)" />
  <text
     x="152.42827"
     y="82.073524"
     style="font-size:34px;fill:#000000;stroke:#000000;font-family:Courier"
     id="text46">0.6</text>
  <polyline
     points="180.0,-116.24355653 210.0,-133.564064606 210.0,-168.205080757 180.0,-185.525588833 150.0,-168.205080757 150.0,-133.564064606 180.0,-116.24355653"
     style="fill:#ffffff;stroke:#888888"
     id="polyline48"
     transform="translate(62.428265,222.95809)" />
  <text
     x="212.42827"
     y="82.073524"
     style="font-size:34px;fill:#000000;stroke:#000000;font-family:Courier"
     id="text50">0.4</text>
  <line
     x1="242.42827"
     y1="106.71454"
     x2="272.42825"
     y2="89.39402"
     style="stroke:#000000;stroke-width:2.2;stroke-miterlimit:4;stroke-dasharray:none"
     id="line52" />
  <line
     x1="272.42825"
     y1="89.39402"
     x2="272.42825"
     y2="54.75301"
     style="stroke:#000000;stroke-width:2.2;stroke-miterlimit:4;stroke-dasharray:none"
     id="line54" />
  <line
     x1="272.42825"
     y1="54.75301"
     x2="242.42827"
     y2="37.432499"
     style="stroke:#000000;stroke-width:2.2;stroke-miterlimit:4;stroke-dasharray:none"
     id="line56" />
  <line
     x1="242.42827"
     y1="37.432499"
     x2="212.42827"
     y2="54.75301"
     style="stroke:#000000;stroke-width:2.2;stroke-miterlimit:4;stroke-dasharray:none"
     id="line58" />
  <line
     x1="212.42827"
     y1="54.75301"
     x2="212.42827"
     y2="89.39402"
     style="stroke:#000000;stroke-width:2.2;stroke-miterlimit:4;stroke-dasharray:none"
     id="line60" />
  <line
     x1="212.42827"
     y1="89.39402"
     x2="242.42827"
     y2="106.71454"
     style="stroke:#000000;stroke-width:2.2;stroke-miterlimit:4;stroke-dasharray:none"
     id="line62" />
</svg>
